<?xml version="1.0" encoding="UTF-8"?><svg id="Layer_2" xmlns="http://www.w3.org/2000/svg" viewBox="0 0 22 22"><g id="External_Link_Alt"><polygon points="22 0 22 8 20 8 20 7 19 7 19 6 18 6 18 7 17 7 17 8 16 8 16 9 15 9 15 10 14 10 14 11 13 11 13 12 12 12 12 13 11 13 11 14 10 14 10 15 9 15 9 16 8 16 8 17 7 17 7 16 6 16 6 15 5 15 5 14 6 14 6 13 7 13 7 12 8 12 8 11 9 11 9 10 10 10 10 9 11 9 11 8 12 8 12 7 13 7 13 6 14 6 14 5 15 5 15 4 16 4 16 3 15 3 15 2 14 2 14 0 22 0"/><polygon points="19 14 19 21 18 21 18 22 1 22 1 21 0 21 0 4 1 4 1 3 10 3 10 6 3 6 3 19 16 19 16 14 19 14"/></g></svg>